<svg xmlns="http://www.w3.org/2000/svg" width="315.856" height="256.705" viewBox="0 0 315.856 256.705">
  <g id="Icon" transform="translate(0)">
    <path id="Path_47" data-name="Path 47" d="M538.191,357.437H290.28a11.967,11.967,0,0,1-11.954-11.954V251.411a11.967,11.967,0,0,1,11.954-11.954H538.191a11.968,11.968,0,0,1,11.954,11.954v94.071a11.967,11.967,0,0,1-11.954,11.954Z" transform="translate(-265.575 -206.126)" fill="#fff"/>
    <path id="Path_48" data-name="Path 48" d="M538.191,357.437H290.28a11.967,11.967,0,0,1-11.954-11.954V251.411a11.967,11.967,0,0,1,11.954-11.954H538.191a11.968,11.968,0,0,1,11.954,11.954v94.071a11.967,11.967,0,0,1-11.954,11.954ZM290.28,240.5a10.914,10.914,0,0,0-10.914,10.914h0v94.071A10.914,10.914,0,0,0,290.279,356.4H538.191a10.914,10.914,0,0,0,10.914-10.914v-35.47A69.516,69.516,0,0,0,479.59,240.5Z" transform="translate(-265.575 -206.126)" fill="#e6e6e6"/>
    <path id="Path_49" data-name="Path 49" d="M580.532,417.954c-3.217-3.222-6.25-6.8-6.33-9.7-.718-25.495-8.155-31.646-7.749-41.521a.309.309,0,0,0-.262-.334s0,0-.009,0a.3.3,0,0,0-.325.266c-2.026,16.329,5.353,31.321,5.109,42.428-.117,5.353.718,9.108,2.022,11.734a10.127,10.127,0,0,0,5.939,5.416h4.015a45.425,45.425,0,0,0-2.41-8.285Z" transform="translate(-423.145 -275.774)" fill="#3f3d56"/>
    <path id="Path_50" data-name="Path 50" d="M619.241,364.377a0,0,0,0,0,0,0h0a.3.3,0,0,0-.415.059c-9.725,12.761-15.639,40.681-16.891,52.321a47.334,47.334,0,0,1,2.359,8.344h2.7a4.723,4.723,0,0,0,.528-1.336,19.484,19.484,0,0,0,.487-4.08,102.572,102.572,0,0,0-.8-14.442c-1.2-10.967,2.211-27.472,12.1-40.442A.3.3,0,0,0,619.241,364.377Zm-14.758,60.206a.347.347,0,0,1,.032.117C604.474,424.641,604.465,424.6,604.483,424.582Z" transform="translate(-443.131 -274.632)" fill="#3f3d56"/>
    <path id="Path_51" data-name="Path 51" d="M396.5,418.582c-.176,3.119-.433,4.973-.438,5.014a.3.3,0,0,1-.3.257.169.169,0,0,1-.045,0,.3.3,0,0,1-.253-.338,4.52,4.52,0,0,1-.966.487h-1.363c-.943-.375-1.855-1.72-2.036-5.416-.158-3.2.235-8.169,1.634-15.8,1.99-10.85-1.462-27.02-11.351-39.991a.3.3,0,0,1,.059-.42.3.3,0,0,1,.417.05l0,0c9.974,13.088,13.3,29.02,14.338,40.086A108.811,108.811,0,0,1,396.5,418.582Z" transform="translate(-322.087 -273.534)" fill="#3f3d56"/>
    <path id="Path_52" data-name="Path 52" d="M568.859,538.731H551.075a3.293,3.293,0,0,1,0-6.587h17.784a3.293,3.293,0,1,1,0,6.587Z" transform="translate(-413.421 -366.719)" fill="#e6e6e6"/>
    <path id="Path_53" data-name="Path 53" d="M566.571,565.731h-39a3.293,3.293,0,0,1,0-6.587h39a3.293,3.293,0,0,1,0,6.587Z" transform="translate(-400.527 -381.533)" fill="#e6e6e6"/>
    <path id="Path_54" data-name="Path 54" d="M505.611,280.238a57.317,57.317,0,1,1,57.317-57.317h0A57.382,57.382,0,0,1,505.611,280.238Zm0-113.732a56.414,56.414,0,1,0,56.414,56.414,56.414,56.414,0,0,0-56.414-56.414Z" transform="translate(-358.833 -165.604)" fill="#f2f2f2"/>
    <path id="Path_55" data-name="Path 55" d="M573.535,293.122c-1.806.108-3.609.291-5.4.559-3.861.511-7.714,1.066-11.567,1.608q-3.6.5-7.182,1.02a11.189,11.189,0,0,1-.3-1.687,12.257,12.257,0,1,1,24.3-3.212,11.31,11.31,0,0,1,.145,1.712Z" transform="translate(-414.078 -228.787)" fill="#6c63ff"/>
    <ellipse id="Ellipse_14" data-name="Ellipse 14" cx="1.275" cy="1.833" rx="1.275" ry="1.833" transform="matrix(0.144, -0.99, 0.99, 0.144, 116.364, 131.453)" fill="#fff"/>
    <ellipse id="Ellipse_15" data-name="Ellipse 15" cx="1.275" cy="1.833" rx="1.275" ry="1.833" transform="matrix(0.144, -0.99, 0.99, 0.144, 128.29, 130.288)" fill="#3f3d56"/>
    <ellipse id="Ellipse_16" data-name="Ellipse 16" cx="1.275" cy="1.833" rx="1.275" ry="1.833" transform="matrix(0.144, -0.99, 0.99, 0.144, 113.097, 121.797)" fill="#ff6584"/>
    <ellipse id="Ellipse_17" data-name="Ellipse 17" cx="1.158" cy="0.806" rx="1.158" ry="0.806" transform="matrix(0.008, -1, 1, 0.008, 110.105, 118.254)" fill="#e6e6e6"/>
    <ellipse id="Ellipse_18" data-name="Ellipse 18" cx="1.158" cy="0.806" rx="1.158" ry="0.806" transform="matrix(0.008, -1, 1, 0.008, 108.348, 110.888)" fill="#3f3d56"/>
    <ellipse id="Ellipse_19" data-name="Ellipse 19" cx="1.158" cy="0.806" rx="1.158" ry="0.806" transform="matrix(0.008, -1, 1, 0.008, 122.014, 123.852)" fill="#e6e6e6"/>
    <ellipse id="Ellipse_20" data-name="Ellipse 20" cx="1.158" cy="0.806" rx="1.158" ry="0.806" transform="matrix(0.008, -1, 1, 0.008, 116.252, 126.73)" fill="#ff6584"/>
    <ellipse id="Ellipse_21" data-name="Ellipse 21" cx="1.158" cy="0.806" rx="1.158" ry="0.806" transform="matrix(0.008, -1, 1, 0.008, 124.274, 132.048)" fill="#3f3d56"/>
    <ellipse id="Ellipse_22" data-name="Ellipse 22" cx="1.625" cy="2.336" rx="1.625" ry="2.336" transform="translate(228.716 60.801) rotate(-75.779)" fill="#fff"/>
    <ellipse id="Ellipse_23" data-name="Ellipse 23" cx="1.625" cy="2.336" rx="1.625" ry="2.336" transform="translate(213.442 60.703) rotate(-75.779)" fill="#3f3d56"/>
    <ellipse id="Ellipse_24" data-name="Ellipse 24" cx="1.625" cy="2.336" rx="1.625" ry="2.336" transform="translate(231.582 73.473) rotate(-75.779)" fill="#ff6584"/>
    <ellipse id="Ellipse_25" data-name="Ellipse 25" cx="1.477" cy="1.027" rx="1.477" ry="1.027" transform="translate(237.866 79.063) rotate(-83.624)" fill="#e6e6e6"/>
    <ellipse id="Ellipse_26" data-name="Ellipse 26" cx="1.477" cy="1.027" rx="1.477" ry="1.027" transform="translate(239.122 88.635) rotate(-83.624)" fill="#3f3d56"/>
    <ellipse id="Ellipse_27" data-name="Ellipse 27" cx="1.477" cy="1.027" rx="1.477" ry="1.027" transform="translate(223.506 70.394) rotate(-83.624)" fill="#e6e6e6"/>
    <ellipse id="Ellipse_28" data-name="Ellipse 28" cx="1.477" cy="1.027" rx="1.477" ry="1.027" transform="translate(231.193 67.507) rotate(-83.624)" fill="#ff6584"/>
    <ellipse id="Ellipse_29" data-name="Ellipse 29" cx="1.477" cy="1.027" rx="1.477" ry="1.027" transform="translate(221.723 59.705) rotate(-83.624)" fill="#3f3d56"/>
    <path id="Path_56" data-name="Path 56" d="M826.5,221.756c-2.326-9.769-1.938-19.391,2.045-28.818a2.208,2.208,0,0,1,2.356-2.044l21.764,1.544a2.208,2.208,0,0,1,2.044,2.356l-2.045,28.818a2.208,2.208,0,0,1-2.356,2.044l-21.764-1.544a2.208,2.208,0,0,1-2.044-2.356Z" transform="translate(-565.565 -179.477)" fill="#f2f2f2"/>
    <path id="Path_57" data-name="Path 57" d="M832.183,215.4c-1.862-4.814-.671-11.435,1.315-18.527a2.068,2.068,0,0,1,2.207-1.914l18.7,1.327a2.068,2.068,0,0,1,1.914,2.207l-1.82,25.644a2.068,2.068,0,0,1-2.207,1.914l-11.587-.822A9.211,9.211,0,0,1,832.183,215.4Z" transform="translate(-568.957 -181.709)" fill="#fff"/>
    <path id="Path_58" data-name="Path 58" d="M859.347,213.913c-4.395,2.164-7.868,4.169-9.693,8.694-1.176-2.71-2.352-3.615-3.528-6.326-.346-.8-1.513-.109-1.169.683l4.176,9.625c.246.566,1.084.345,1.237-.162a18.825,18.825,0,0,1,9.66-11.346C860.812,214.7,860.127,213.529,859.347,213.913Z" transform="translate(-576.442 -192.068)" fill="#6c63ff"/>
    <path id="Path_59" data-name="Path 59" d="M440.5,499.756c-2.326-9.769-1.938-19.391,2.045-28.818a2.208,2.208,0,0,1,2.356-2.044l21.764,1.544a2.208,2.208,0,0,1,2.044,2.356l-2.045,28.818a2.208,2.208,0,0,1-2.356,2.044l-21.764-1.545A2.208,2.208,0,0,1,440.5,499.756Z" transform="translate(-353.773 -332.011)" fill="#f2f2f2"/>
    <path id="Path_60" data-name="Path 60" d="M446.183,493.4c-1.861-4.814-.671-11.435,1.315-18.527a2.068,2.068,0,0,1,2.207-1.914l18.7,1.327a2.068,2.068,0,0,1,1.914,2.207l-1.82,25.644a2.068,2.068,0,0,1-2.207,1.914l-11.587-.822a9.211,9.211,0,0,1-8.527-9.829Z" transform="translate(-357.165 -334.243)" fill="#fff"/>
    <path id="Path_61" data-name="Path 61" d="M473.347,491.913c-4.4,2.164-7.868,4.169-9.693,8.694-1.176-2.71-2.352-3.615-3.528-6.326-.346-.8-1.513-.109-1.169.683l4.176,9.625c.246.566,1.084.345,1.237-.162a18.825,18.825,0,0,1,9.66-11.346C474.812,492.7,474.127,491.529,473.347,491.913Z" transform="translate(-364.649 -344.603)" fill="#6c63ff"/>
    <path id="Path_62" data-name="Path 62" d="M251.5,234.756c-2.326-9.769-1.938-19.391,2.045-28.818a2.208,2.208,0,0,1,2.356-2.044l21.764,1.544a2.208,2.208,0,0,1,2.044,2.356l-2.045,28.818a2.208,2.208,0,0,1-2.356,2.044l-21.764-1.545a2.208,2.208,0,0,1-2.044-2.356Z" transform="translate(-250.072 -186.61)" fill="#f2f2f2"/>
    <path id="Path_63" data-name="Path 63" d="M257.183,228.4c-1.861-4.814-.671-11.435,1.315-18.527a2.068,2.068,0,0,1,2.207-1.914l18.7,1.327a2.068,2.068,0,0,1,1.914,2.207l-1.82,25.644a2.068,2.068,0,0,1-2.207,1.914l-11.587-.822A9.211,9.211,0,0,1,257.183,228.4Z" transform="translate(-253.463 -188.841)" fill="#fff"/>
    <path id="Path_64" data-name="Path 64" d="M284.347,226.913c-4.395,2.164-7.868,4.169-9.693,8.694-1.176-2.71-2.352-3.615-3.528-6.326-.346-.8-1.513-.109-1.169.683l4.176,9.625c.246.566,1.084.345,1.237-.162a18.825,18.825,0,0,1,9.66-11.346C285.812,227.7,285.127,226.529,284.347,226.913Z" transform="translate(-260.948 -199.201)" fill="#6c63ff"/>
    <path id="Path_65" data-name="Path 65" d="M611.189,699.558a.549.549,0,0,1-.4-.952l.038-.15-.015-.036a1.474,1.474,0,0,0-2.719.01,13.091,13.091,0,0,0-1.151,3.277,4.362,4.362,0,0,0,.077,1.5,17.486,17.486,0,0,1-1.591-7.262,16.876,16.876,0,0,1,.1-1.883q.087-.768.241-1.526a17.687,17.687,0,0,1,3.508-7.5,4.708,4.708,0,0,0,1.958-2.031,3.591,3.591,0,0,0,.326-.981,4.433,4.433,0,0,1-.287-1.528c-.133-.2-.371-.3-.516-.5-.721-.978-1.716-.807-2.234.522-1.109.559-1.119,1.487-.439,2.38.433.568.492,1.336.872,1.944-.039.05-.08.1-.119.148a17.806,17.806,0,0,0-1.858,2.944,7.4,7.4,0,0,0-.442-3.437,12.4,12.4,0,0,0-1.914-2.762,1.519,1.519,0,0,0-2.706.746l0,.039q.156.088.3.186a.745.745,0,0,1-.3,1.355l-.015,0a7.408,7.408,0,0,0,.2,1.108c-.9,3.463,1.038,4.724,3.8,4.781.061.031.12.062.181.092a18.172,18.172,0,0,0-.978,4.6,17.226,17.226,0,0,0,.013,2.783l0-.033a4.554,4.554,0,0,0-1.555-2.63c-1.2-.983-2.887-1.345-4.177-2.135a.855.855,0,0,0-1.309.832l.005.034a5,5,0,0,1,.561.27q.156.088.3.186a.745.745,0,0,1-.3,1.355l-.015,0-.031,0a7.416,7.416,0,0,0,1.364,2.136c.56,3.023,2.965,3.31,5.537,2.43h0a18.154,18.154,0,0,0,1.22,3.563h4.359c.016-.048.03-.1.044-.147a4.951,4.951,0,0,1-1.206-.072c.323-.4.647-.8.97-1.194l.02-.023c.164-.2.33-.4.494-.608h0a7.255,7.255,0,0,0-.213-1.848Z" transform="translate(-441.011 -447.503)" fill="#f2f2f2"/>
    <path id="Path_66" data-name="Path 66" d="M867.349,699.558a.549.549,0,0,0,.4-.952l-.038-.15.015-.036a1.474,1.474,0,0,1,2.719.01,13.1,13.1,0,0,1,1.15,3.277,4.365,4.365,0,0,1-.077,1.5,17.486,17.486,0,0,0,1.591-7.262,16.857,16.857,0,0,0-.1-1.883q-.087-.769-.241-1.527a17.688,17.688,0,0,0-3.508-7.5,4.709,4.709,0,0,1-1.958-2.031,3.593,3.593,0,0,1-.327-.981,4.43,4.43,0,0,0,.287-1.528c.133-.2.371-.3.516-.5.721-.978,1.715-.807,2.234.522,1.108.559,1.119,1.487.439,2.38-.433.568-.492,1.336-.872,1.944.039.05.08.1.119.148a17.806,17.806,0,0,1,1.858,2.944,7.4,7.4,0,0,1,.442-3.437,12.4,12.4,0,0,1,1.914-2.761,1.519,1.519,0,0,1,2.706.746l0,.039q-.156.088-.3.186a.745.745,0,0,0,.3,1.355l.015,0a7.408,7.408,0,0,1-.2,1.108c.9,3.463-1.038,4.724-3.8,4.781-.061.031-.12.062-.181.092a18.172,18.172,0,0,1,.978,4.6,17.24,17.24,0,0,1-.012,2.783l0-.033a4.555,4.555,0,0,1,1.555-2.63c1.2-.983,2.887-1.345,4.177-2.135a.855.855,0,0,1,1.309.831l-.005.034a5,5,0,0,0-.561.27q-.155.088-.3.186a.745.745,0,0,0,.3,1.355l.015,0,.031,0a7.418,7.418,0,0,1-1.364,2.136c-.56,3.023-2.965,3.31-5.537,2.43h0a18.165,18.165,0,0,1-1.22,3.563h-4.359c-.016-.048-.03-.1-.044-.147a4.951,4.951,0,0,0,1.206-.072c-.323-.4-.647-.8-.97-1.194l-.02-.023c-.164-.2-.33-.4-.494-.608h0a7.256,7.256,0,0,1,.213-1.848Z" transform="translate(-588.555 -447.503)" fill="#f2f2f2"/>
    <path id="Path_67" data-name="Path 67" d="M552.3,538.527h-4.084l-1.943-15.754H552.3Z" transform="translate(-299.733 -286.837)" fill="#ffb6b6"/>
    <path id="Path_68" data-name="Path 68" d="M794.751,724.472h-12.56v-.159a4.889,4.889,0,0,1,4.888-4.889h0l2.294-1.741,4.281,1.741h1.1Z" transform="translate(-542.038 -468.521)" fill="#2f2e41"/>
    <path id="Path_69" data-name="Path 69" d="M484.3,538.527h-4.084l-1.943-15.754H484.3Z" transform="translate(-262.422 -286.837)" fill="#ffb6b6"/>
    <path id="Path_70" data-name="Path 70" d="M726.751,724.472h-12.56v-.159a4.889,4.889,0,0,1,4.888-4.889h0l2.294-1.741,4.281,1.741h1.1Z" transform="translate(-504.727 -468.521)" fill="#2f2e41"/>
    <path id="Path_71" data-name="Path 71" d="M809.5,428.652l-6.795,2.73c-.07,4.776,4.638,14.657,4.638,14.657l2.3,18.147a3.233,3.233,0,1,0,5.578-.421l.259-22.819Z" transform="translate(-553.292 -309.934)" fill="#ffb6b6"/>
    <path id="Path_72" data-name="Path 72" d="M784.107,393.772h0a7.726,7.726,0,0,1,10.392,5.779l.851,4.544s9.764,13.206,8.855,18.012l-10.442,1.326S792,416.8,789.2,414.718c-1.712-1.277-5.064-7.168-7.106-12.357C780.539,398.4,780.138,395.315,784.107,393.772Z" transform="translate(-541.375 -290.508)" fill="#6c63ff"/>
    <path id="Path_73" data-name="Path 73" d="M717.294,482.376s-7.553,7.366-5.94,9.067,5.3,4.084,1.878,4.472-4.845,1.229-1.878,1.937,2.508,2.525,2.508,2.525-4.467,21.263-1.082,35.254c0,0,1.884,38.214,3.066,41.19s1.633,1.171,1.182,2.976-1.354-1.354-.451,1.805a41.748,41.748,0,0,1,1.168,5.028l8.829-1.354s1.421-4.48,0-5.657-2.7-.451-1.156-3.07,1.992.991,1.54-2.619,1.433-23.138-1.54-33.458l5.494-28.958,8.722,29.984s4.627,36.62,6.13,37.911,3.76-.966,1.5,1.291-2.217,1.868-2.257,2.257c-.42,4.14,12.5-.388,12.5-.388a23.182,23.182,0,0,1,0-3.159c.136-.966-1.49-1.275,0-2.249s-.727-.008-.727-.008-3.332-27.016-5.867-35.2l-2.934-39.868s-.186.8,0-1.138,1.54-.579.186-1.933-2.257-2.044-1.354-3.053,3.393-3.05,1.922-4.286-4.365-9.3-4.365-9.3l-28.207.226" transform="translate(-502.286 -339.412)" fill="#2f2e41"/>
    <path id="Path_74" data-name="Path 74" d="M731.438,376.241l5.086-5.727,8.037.893,5.145,7.2h0a10.985,10.985,0,0,1,8.362,12.582c-.991,5.705-3.161,11.325-4.822,16.232-.2.587.524,2.691-.571,1.729s-.45,1.439-.644,2.128c-.932,3.315-1.329,6.144-.5,8.232.425,1.076,3.08,3.313,1.116,2.991s.567,1.745.752,2.5c1.119,4.576-.287,6.33-6.4,5.423-8.141-1.207-35.416-3.99-30.128-9.278s6.449-14.125,6.449-14.125l.212-20.216a8.985,8.985,0,0,1,7.207-10.466Q731.084,376.277,731.438,376.241Z" transform="translate(-505.824 -278.035)" fill="#6c63ff"/>
    <path id="Path_75" data-name="Path 75" d="M717.066,431.945l-6.984-2.2c-3.083,3.648-5.711,14.273-5.711,14.273l-9.732,15.488a3.233,3.233,0,1,0,4.58,3.213l14.673-17.478Z" transform="translate(-492.97 -310.534)" fill="#ffb6b6"/>
    <path id="Path_76" data-name="Path 76" d="M731.449,388.789h0a7.726,7.726,0,0,1,4.369,11.059l-2.224,4.053s-.564,18.3-4.315,21.438l-9.177-7.494s2.841-6.245,2-9.63c-.513-2.073.631-8.754,2.344-14.06C725.756,390.1,727.4,387.464,731.449,388.789Z" transform="translate(-507.97 -287.873)" fill="#6c63ff"/>
    <circle id="Ellipse_30" data-name="Ellipse 30" cx="9.714" cy="9.714" r="9.714" transform="translate(227.215 72.558)" fill="#ffb6b6"/>
    <path id="Path_77" data-name="Path 77" d="M763.432,341.726c-2.705-.678-2.8-1.451-5.5-2.129-.861-.216-1.859-.556-2.115-1.406a2.049,2.049,0,0,1,.487-1.76,16.638,16.638,0,0,0,1.2-1.47,2.95,2.95,0,0,0-2.036-4.419c-.837-.143-1.7.079-2.542-.029-1.155-.147-2.854-4.433-2.114-5.331.721-.875,1.9-1.4,2.3-2.458a11.13,11.13,0,0,0,.234-2.2c.172-1.086,2.369,1.92,2.076.861-.717-2.6,11.42-3.009,12.684.326.472,1.246,1.751,1.444,2.734,2.344a10.3,10.3,0,0,1,2.41,3.493,7.372,7.372,0,0,1-.1,3.1c-1.008,4.751-2.674,8.961-7.109,10.94" transform="translate(-524.717 -249.945)" fill="#2f2e41"/>
    <path id="Path_78" data-name="Path 78" d="M734.241,732.782l-175.889.139a.537.537,0,0,1,0-1.075l175.889-.139a.537.537,0,1,1,.006,1.075Z" transform="translate(-418.925 -476.216)" fill="#cacaca"/>
    <path id="Path_79" data-name="Path 79" d="M339.123,345.251a16.288,16.288,0,0,0-11.685-4.769h-.173a16.686,16.686,0,0,1-8.411-2.272l-.266-.155.214-.22a16.263,16.263,0,0,0,2.868-4.061,4.94,4.94,0,0,1-4.622,1.16,5.259,5.259,0,0,1-3.124-2.375c-1.574-2.539-4.041-6.16-3.358-8.776.985-3.77,14.352,2.346,5.46-12.35-1.549-2.561,3.468-4.847,3.443-7.771v-.208a23.645,23.645,0,0,1,.7-5.723l.046-.185.194.007a15.977,15.977,0,0,0,3.736-.313,12.612,12.612,0,0,1-3.351-.891l-.209-.085.071-.214c4.892-3.029,15.934-1.46,22.344-16.125,5.2-11.891,23.534,10.555,23.534,23.53,0,1.324-1.31,3.073-.329,3.948,10.6,9.459,3.287,15.533.98,21.645-.547,1.45.639,3.042.639,4.611,0,.266-.007.541-.02.817l-.02.424-.354-.235a11.709,11.709,0,0,1-1.934-1.586,10.2,10.2,0,0,1-.324,8.81c-1.111,2.1-2.5,5.6-3.195,4.462-5.061-8.307-12.075-23.231-11.582-5.842a6.559,6.559,0,0,1-11.181,4.841Z" transform="translate(-283.2 -226.483)" fill="#e6e6e6"/>
    <ellipse id="Ellipse_31" data-name="Ellipse 31" cx="1.275" cy="1.833" rx="1.275" ry="1.833" transform="matrix(0.144, -0.99, 0.99, 0.144, 50.02, 75.94)" fill="#fff"/>
    <ellipse id="Ellipse_32" data-name="Ellipse 32" cx="1.275" cy="1.833" rx="1.275" ry="1.833" transform="matrix(0.144, -0.99, 0.99, 0.144, 61.946, 74.776)" fill="#3f3d56"/>
    <ellipse id="Ellipse_33" data-name="Ellipse 33" cx="1.275" cy="1.833" rx="1.275" ry="1.833" transform="matrix(0.144, -0.99, 0.99, 0.144, 46.754, 66.285)" fill="#ff6584"/>
    <ellipse id="Ellipse_34" data-name="Ellipse 34" cx="1.158" cy="0.806" rx="1.158" ry="0.806" transform="matrix(0.008, -1, 1, 0.008, 43.762, 62.742)" fill="#e6e6e6"/>
    <ellipse id="Ellipse_35" data-name="Ellipse 35" cx="1.158" cy="0.806" rx="1.158" ry="0.806" transform="matrix(0.008, -1, 1, 0.008, 42.005, 55.376)" fill="#3f3d56"/>
    <ellipse id="Ellipse_36" data-name="Ellipse 36" cx="1.158" cy="0.806" rx="1.158" ry="0.806" transform="matrix(0.008, -1, 1, 0.008, 55.671, 68.34)" fill="#e6e6e6"/>
    <ellipse id="Ellipse_37" data-name="Ellipse 37" cx="1.158" cy="0.806" rx="1.158" ry="0.806" transform="matrix(0.008, -1, 1, 0.008, 49.908, 71.218)" fill="#ff6584"/>
    <ellipse id="Ellipse_38" data-name="Ellipse 38" cx="1.158" cy="0.806" rx="1.158" ry="0.806" transform="matrix(0.008, -1, 1, 0.008, 57.93, 76.536)" fill="#3f3d56"/>
    <path id="Path_80" data-name="Path 80" d="M596.156,351.886c-.214-14.747-5.174-11.84-10.852-4.007-.779,1.075-2.084-2.365-3.195-4.462a10.2,10.2,0,0,1-.324-8.81,11.714,11.714,0,0,1-1.934,1.586l-.354.235-.02-.424c-.013-.276-.02-.551-.02-.817,0-1.569,1.187-3.161.639-4.611-2.306-6.112-9.622-12.186.98-21.645.981-.875-.329-2.625-.329-3.948,0-12.974,25-36.423,23.534-23.53-2.4,21.147,12.22,16.944,22.344,16.125l.071.214-.209.085a12.611,12.611,0,0,1-3.351.891,15.977,15.977,0,0,0,3.736.313l.194-.007.047.189a23.638,23.638,0,0,1,.7,5.72v.208a10.422,10.422,0,0,0,3.443,7.771,16.736,16.736,0,0,1,5.46,12.35c0,2.751-1.869,6.361-3.438,8.906a5.036,5.036,0,0,1-3.7,2.368,4.918,4.918,0,0,1-3.969-1.282,16.265,16.265,0,0,0,2.868,4.061l.214.22-.266.155a16.685,16.685,0,0,1-8.411,2.272h-.173a16.288,16.288,0,0,0-11.685,4.769A16.825,16.825,0,0,1,596.156,351.886Z" transform="translate(-428.622 -227.111)" fill="#f2f2f2"/>
    <path id="Path_81" data-name="Path 81" d="M540.875,352.363a7.415,7.415,0,0,1-12.666,3.044c-4.278-4.644-6.418-1.031-6.5,9.284-.01,1.328-2.991-.994-5.007-2.246A10.2,10.2,0,0,1,511.99,355a11.712,11.712,0,0,1-.872,2.344l-.187.381-.231-.356c-.15-.231-.295-.465-.429-.7-.79-1.355-.567-3.328-1.77-4.306-5.071-4.119-14.45-5.682-10.053-19.194.407-1.25-1.107-2.619-2.273-3.245-18.929-10.165-6.6-39.448,8.483-32.18,14.417,6.948,21.672,2.525,27.424,2.679l.169.149-.138.178a12.611,12.611,0,0,1-2.446,2.457,15.979,15.979,0,0,0,3.386-1.611l.165-.1.136.139a23.64,23.64,0,0,1,3.487,4.588l.1.18a10.422,10.422,0,0,0,6.888,4.98,16.736,16.736,0,0,1,10.936,7.92c1.355,2.325,1.579,6.262,1.519,9.23a5.267,5.267,0,0,1-1.54,3.7,4.938,4.938,0,0,1-4.54,1.29,16.265,16.265,0,0,0,4.523,2.064l.3.083-.152.268a16.686,16.686,0,0,1-6.123,6.2l-.15.087a16.289,16.289,0,0,0-7.693,10.005Z" transform="translate(-379.827 -237.48)" fill="#e6e6e6"/>
    <path id="Path_82" data-name="Path 82" d="M354.223,390.315c.056-.035.092-.086.082-.121a12.192,12.192,0,0,0-2.509-4.207,14.249,14.249,0,0,0-10.365-4.565.228.228,0,0,0-.168.088c-.038.051.009.046.029.1,1.35,3.4,3.579,6.381,9.209,5.249,2.757-.554,3.559,3.441,3.565,3.461.011.038.073.041.139.007Z" transform="translate(-300.1 -284.02)" fill="#f2f2f2"/>
    <path id="Path_83" data-name="Path 83" d="M532.372,395.315c.056-.035.093-.086.082-.121a12.193,12.193,0,0,0-2.509-4.207,14.249,14.249,0,0,0-10.365-4.565.228.228,0,0,0-.168.088c-.038.051.071.061.029.1-6.606,5.7,1.81,5.9,9.209,5.249,2.8-.247,3.559,3.441,3.565,3.461.011.038.073.041.139.007Z" transform="translate(-396.56 -286.763)" fill="#f2f2f2"/>
    <path id="Path_84" data-name="Path 84" d="M398.105,305.447c.065.012.113-.055.142-.034,1.351.977,3.345-.2.979-4.8-1.194-2.323-.753-6.529-4.587-10.355a.228.228,0,0,0-.183-.048c-.063.012-.082.053-.043.091,3.8,3.793,3.3,7.489,3.272,10.083a36.316,36.316,0,0,0,.3,4.959c-.017.036.026.08.1.1Z" transform="translate(-329.259 -233.972)" fill="#f2f2f2"/>
    <path id="Path_85" data-name="Path 85" d="M524.214,338.478c.056-.035.093-.086.082-.121a6.066,6.066,0,0,1-2.509-4.207c-1.382-12.847-4.819-8.414-10.365-4.565-.045.031-.13.037-.168.088s-.025.094.029.1c5.364.244,7.48,3.316,9.209,5.249a36.324,36.324,0,0,0,3.565,3.461c.011.038.073.041.139.007Z" transform="translate(-393.367 -253.395)" fill="#f2f2f2"/>
    <path id="Path_86" data-name="Path 86" d="M669.113,373.118c-.056-.035-.093-.086-.083-.121a6.808,6.808,0,0,0,2.509-4.207c3.033-18.306,5.6-12.5,10.365-4.565.028.047.13.037.168.088s.025.094-.029.1c-5.364.244-7.48,3.316-9.209,5.249a36.335,36.335,0,0,1-3.565,3.461c-.011.038-.073.041-.139.007Z" transform="translate(-479.947 -270.434)" fill="#fff"/>
    <path id="Path_87" data-name="Path 87" d="M407.113,371.7c-.056-.035-.092-.086-.082-.121s3.426-1.532,2.509-4.207c-3.327-9.7,3.438-6.637,10.365-4.565a.325.325,0,0,1,.168.088c.038.051.025.094-.029.1-5.364.244-7.48,3.316-9.209,5.249a36.324,36.324,0,0,1-3.565,3.461c-.011.038-.073.041-.139.007Z" transform="translate(-336.192 -272.626)" fill="#f2f2f2"/>
    <path id="Path_88" data-name="Path 88" d="M594.113,357.363c-.056-.035-.092-.086-.082-.121a21.212,21.212,0,0,0,2.509-4.207c6.36-14.012,7.825-11.821,10.365-4.565.018.052.13.037.168.088s.025.094-.029.1c-5.364.244-7.48,3.316-9.209,5.249a36.317,36.317,0,0,1-3.565,3.461c-.011.038-.073.041-.139.007Z" transform="translate(-438.796 -262.802)" fill="#f2f2f2"/>
  </g>
</svg>
